HIERARCHY
ROOT Hips
{
	OFFSET 0.000000 0.000000 0.000000 
	CHANNELS 6 Xposition Yposition Zposition Zrotation Yrotation Xrotation
	JOINT LeftUpLeg
	{
		OFFSET 1.363060 -1.794630 0.839290 
		CHANNELS 3 Zrotation Yrotation Xrotation
		JOINT LeftLeg
		{
			OFFSET 2.448110 -6.726130 0.000000 
			CHANNELS 3 Zrotation Yrotation Xrotation
			JOINT LeftFoot
			{
				OFFSET 2.562200 -7.039590 0.000000 
				CHANNELS 3 Zrotation Yrotation Xrotation
				JOINT LeftToeBase
				{
					OFFSET 0.157640 -0.433110 2.322550 
					CHANNELS 3 Zrotation Yrotation Xrotation
					End Site
					{
						OFFSET 0.000000 0.000000 0.000000 
					}
				}
			}
		}
	}
	JOINT RightUpLeg
	{
		OFFSET -1.305520 -1.794630 0.839290 
		CHANNELS 3 Zrotation Yrotation Xrotation
		JOINT RightLeg
		{
			OFFSET -2.542530 -6.985550 0.000000 
			CHANNELS 3 Zrotation Yrotation Xrotation
			JOINT RightFoot
			{
				OFFSET -2.568260 -7.056230 0.000000 
				CHANNELS 3 Zrotation Yrotation Xrotation
				JOINT RightToeBase
				{
					OFFSET -0.164730 -0.452590 2.363150 
					CHANNELS 3 Zrotation Yrotation Xrotation
					End Site
					{
						OFFSET 0.000000 0.000000 0.000000 
					}
				}
			}
		}
	}
	JOINT Spine
	{
		OFFSET 0.028270 2.035590 -0.193380 
		CHANNELS 3 Zrotation Yrotation Xrotation
		JOINT Spine1
		{
			OFFSET 0.056720 2.048850 -0.042750 
			CHANNELS 3 Zrotation Yrotation Xrotation
			JOINT Neck1
			{
				OFFSET -0.054170 1.746240 0.172020 
				CHANNELS 3 Zrotation Yrotation Xrotation
				JOINT Head
				{
					OFFSET 0.104070 1.761360 -0.123970 
					CHANNELS 3 Zrotation Yrotation Xrotation
					End Site
					{
						OFFSET 0.000000 0.000000 0.000000 
					}
				}
			}
			JOINT LeftArm
			{
				OFFSET 3.362410 1.200890 -0.311210 
				CHANNELS 3 Zrotation Yrotation Xrotation
				JOINT LeftForeArm
				{
					OFFSET 4.983000 -0.000000 -0.000000 
					CHANNELS 3 Zrotation Yrotation Xrotation
					JOINT LeftHand
					{
						OFFSET 3.483560 -0.000000 -0.000000 
						CHANNELS 3 Zrotation Yrotation Xrotation
						JOINT LeftHandIndex1
						{
							OFFSET 0.715260 -0.000000 -0.000000 
							CHANNELS 3 Zrotation Yrotation Xrotation
							End Site
							{
								OFFSET 0.000000 0.000000 0.000000 
							}
						}
					}
				}
			}
			JOINT RightArm
			{
				OFFSET -3.136600 1.374050 -0.404650 
				CHANNELS 3 Zrotation Yrotation Xrotation
				JOINT RightForeArm
				{
					OFFSET -5.241900 -0.000000 -0.000000 
					CHANNELS 3 Zrotation Yrotation Xrotation
					JOINT RightHand
					{
						OFFSET -3.444170 -0.000000 -0.000000 
						CHANNELS 3 Zrotation Yrotation Xrotation
						JOINT RightHandIndex1
						{
							OFFSET -0.622530 -0.000000 -0.000000 
							CHANNELS 3 Zrotation Yrotation Xrotation
							End Site
							{
								OFFSET 0.000000 0.000000 0.000000 
							}
						}
					}
				}
			}
		}
	}
}
MOTION
Frames: 16
Frame Time: 0.041667
20.271337 18.204775 0.513739 17.171905 -79.963339 -5.390030 -10.040318 -24.509314 -11.689217 -1.071999 6.171745 19.662737 -2.094612 8.235512 0.952048 0.062500 1.613400 4.438300 15.119841 19.670008 -11.932528 -0.522827 -6.954349 23.470166 2.116750 -15.350108 -19.599980 -0.393300 -4.026900 11.152200 0.993462 -0.967835 -7.249157 1.250548 -0.054931 -3.375115 -2.443735 -3.185622 8.572402 -0.740400 -1.786500 2.489400 -93.831183 15.245110 6.209844 30.003808 -30.231419 -7.751309 1.279230 0.301047 15.052701 -7.125000 0.000000 0.000000 84.236737 -15.181529 19.980545 -21.336740 23.594249 -6.413220 1.805280 -0.467356 8.851705 7.125000 0.000000 0.000000 
20.284860 18.211648 0.492892 17.004136 -79.673362 -5.121097 -9.979440 -24.380053 -11.976830 -1.051854 6.215331 19.785575 -1.974098 7.882024 1.068483 0.047400 1.405300 3.864900 15.078157 19.449366 -12.140180 -0.511624 -6.937159 23.402534 2.142336 -15.388153 -19.467165 -0.355700 -3.831500 10.603200 1.013816 -1.072779 -7.341369 1.330946 -0.102182 -3.433908 -2.854212 -3.207482 8.444909 -0.858800 -1.802800 2.390100 -93.984177 15.582594 6.199489 30.382134 -30.598278 -7.941533 1.261524 0.312281 14.980142 -7.125000 0.000000 0.000000 84.084177 -15.419340 20.862757 -21.541987 23.810932 -6.509722 1.811316 -0.404810 7.322456 7.125000 0.000000 0.000000 
20.296241 18.212888 0.471031 16.574953 -79.468924 -4.733648 -9.855088 -24.490457 -12.001236 -1.046351 6.218903 19.800075 -1.932125 7.754865 1.151108 0.057700 1.549500 4.262200 15.171215 19.362807 -12.181936 -0.520305 -6.953047 23.456246 2.128359 -15.361512 -19.515830 -0.332300 -3.704700 10.247400 1.015337 -1.062557 -7.284919 1.322953 -0.099230 -3.397874 -2.803401 -3.198603 8.358090 -0.837000 -1.796800 2.357500 -93.929948 15.721542 6.476419 30.673832 -30.893209 -8.121350 1.270737 0.295282 14.845867 -7.125000 0.000000 0.000000 83.976452 -15.395925 21.490812 -21.721056 24.008442 -6.590947 1.814031 -0.344378 5.891364 7.125000 0.000000 0.000000 
20.306946 18.208719 0.452212 16.358321 -79.382072 -4.547036 -9.763932 -24.596184 -12.066180 -1.034093 6.233516 19.840654 -1.927662 7.739977 1.260822 0.074900 1.765100 4.857000 15.235552 19.255514 -12.247469 -0.528462 -6.966565 23.498898 2.113440 -15.295802 -19.486370 -0.307100 -3.562600 9.849300 1.021100 -0.976071 -7.213513 1.322862 -0.054249 -3.339064 -2.587515 -3.156285 7.986397 -0.751500 -1.769700 2.237300 -93.883864 15.897129 6.973382 31.070614 -31.296601 -8.376164 1.280068 0.282723 14.819130 -7.125000 0.000000 0.000000 83.772973 -15.222633 22.189284 -21.734271 24.030522 -6.603963 1.820494 -0.289071 4.501957 7.125000 0.000000 0.000000 
20.323399 18.203986 0.432605 16.210532 -79.213520 -4.325595 -9.674620 -24.580104 -12.361922 -1.014731 6.265722 19.918466 -1.885193 7.618564 1.518261 0.057700 1.549800 4.263100 15.247443 19.144260 -12.433545 -0.533129 -6.976122 23.524336 2.136074 -15.370976 -19.451145 -0.288600 -3.454700 9.547300 1.043476 -1.032214 -7.213264 1.374062 -0.078492 -3.402408 -3.169856 -3.237750 8.326127 -0.941200 -1.827300 2.396500 -93.959027 16.244679 7.271524 31.617818 -31.830945 -8.682424 1.262369 0.286607 14.980879 -7.125000 0.000000 0.000000 83.396260 -14.985983 22.198740 -21.588113 23.831106 -6.458795 1.834880 -0.362280 6.072290 7.125000 0.000000 0.000000 
20.339738 18.204887 0.411532 15.622256 -78.839824 -3.650945 -9.531009 -24.489128 -12.689881 -0.994944 6.307203 20.034142 -1.749171 7.217780 1.612355 0.035500 1.215800 3.342800 15.357844 19.039536 -12.576894 -0.535173 -6.981400 23.544281 2.204481 -15.657427 -19.479204 -0.278800 -3.396200 9.383900 1.043813 -1.161938 -7.226835 1.320880 -0.146814 -3.384407 -3.203414 -3.223234 8.115434 -0.949100 -1.819100 2.349000 -93.951380 16.619182 7.534270 32.220954 -32.396969 -9.008433 1.240764 0.283859 15.036834 -7.125000 0.000000 0.000000 83.159253 -14.886203 22.558243 -21.715589 23.945982 -6.474163 1.827225 -0.394586 6.325423 7.125000 0.000000 0.000000 
20.361938 18.209169 0.398122 15.174949 -78.914845 -3.011536 -9.361089 -24.296200 -13.065707 -0.969060 6.366441 20.182946 -1.688072 7.044034 1.584070 0.046400 1.390900 3.825000 15.408609 19.006714 -12.945364 -0.539465 -6.992697 23.542088 2.233633 -15.628857 -19.123742 -0.267200 -3.325100 9.185100 1.023990 -1.049751 -7.236850 1.162443 -0.099069 -3.294048 -3.037043 -3.193123 7.610889 -0.876700 -1.797300 2.193000 -93.859395 16.872412 7.944492 32.711523 -32.853446 -9.287372 1.223505 0.292524 14.942034 -7.125000 0.000000 0.000000 82.992401 -14.866649 22.934959 -22.014665 24.256374 -6.589905 1.813069 -0.394219 5.965456 7.125000 0.000000 0.000000 
20.380418 18.210522 0.385276 15.064035 -78.933871 -2.803774 -9.305351 -24.170272 -13.331784 -0.933857 6.437765 20.380870 -1.627850 6.867808 1.610608 0.069700 1.702800 4.685000 15.394035 18.996469 -13.150365 -0.537292 -6.991699 23.519588 2.212502 -15.493000 -18.993022 -0.295300 -3.494400 9.658200 1.033823 -0.966898 -7.173988 1.095376 -0.059074 -3.057718 -2.283959 -3.008857 6.394560 -0.567000 -1.690000 1.810700 -93.761804 16.798056 8.225212 32.892744 -33.046405 -9.422764 1.231884 0.287037 15.140994 -7.125000 0.000000 0.000000 82.684190 -14.669321 23.237247 -22.168779 24.388474 -6.618058 1.818062 -0.388396 6.018718 7.125000 0.000000 0.000000 
20.399237 18.213113 0.371303 15.128516 -78.859066 -2.807725 -9.301353 -24.112923 -13.585606 -0.896861 6.510291 20.581659 -1.580281 6.727082 1.648988 0.097000 2.008900 5.530300 15.364156 18.848238 -13.361117 -0.536606 -6.993971 23.509665 2.226005 -15.492035 -18.866018 -0.289500 -3.460300 9.563100 1.061746 -0.990320 -7.076831 1.086037 -0.072058 -2.972058 -1.825654 -2.834548 7.073073 -0.436100 -1.606700 2.118100 -93.730536 16.737520 8.438745 33.065767 -33.240520 -9.556786 1.241884 0.264643 15.381182 -7.125000 0.000000 0.000000 82.206252 -14.412769 23.759943 -22.276764 24.488573 -6.627246 1.820773 -0.380950 6.088474 7.125000 0.000000 0.000000 
20.423352 18.217734 0.357442 14.946432 -78.724893 -2.552424 -9.240255 -24.033755 -13.895094 -0.868750 6.565511 20.729399 -1.507198 6.511825 1.766606 0.148000 2.479500 6.832700 15.386306 18.651105 -13.649365 -0.544086 -7.013452 23.547246 2.268063 -15.595817 -18.709267 -0.262600 -3.296700 9.105900 1.102787 -1.061331 -7.081940 1.113151 -0.105519 -3.001152 -2.481926 -2.726594 6.278231 -0.618800 -1.557400 1.886400 -93.805719 16.998214 8.759560 33.604220 -33.739766 -9.884150 1.229647 0.261803 15.312543 -7.125000 0.000000 0.000000 81.715645 -14.344624 24.435358 -22.569391 24.787659 -6.738936 1.813574 -0.368960 5.818639 7.125000 0.000000 0.000000 
20.449044 18.219537 0.344596 14.678549 -78.671965 -2.245446 -9.161613 -23.935316 -14.201323 -0.845226 6.616410 20.865544 -1.386451 6.154056 1.871434 0.202100 2.894900 7.986400 15.433982 18.581058 -13.865287 -0.557905 -7.039723 23.618059 2.283621 -15.626214 -18.616134 -0.268200 -3.331600 9.203300 1.113432 -1.006890 -7.087016 1.108510 -0.075961 -3.075488 -3.151525 -2.859606 5.905190 -0.819700 -1.627500 1.755800 -93.808550 17.355141 9.238228 34.245412 -34.312112 -10.279515 1.217309 0.260451 15.362215 -7.125000 0.000000 0.000000 81.419603 -14.434890 24.743605 -22.960120 25.189894 -6.901710 1.802874 -0.352708 5.521149 7.125000 0.000000 0.000000 
20.472596 18.217508 0.333440 14.563128 -78.636083 -2.141891 -9.127717 -23.859046 -14.479184 -0.818097 6.672806 21.020156 -1.263653 5.786616 2.034197 0.251900 3.229100 8.917300 15.448376 18.563084 -13.995876 -0.571210 -7.062690 23.689616 2.268393 -15.572655 -18.620283 -0.309800 -3.578500 9.893800 1.088389 -0.885038 -7.030689 1.067485 -0.014886 -3.053975 -3.348162 -2.947316 5.699096 -0.885600 -1.669600 1.689200 -93.642664 17.468029 9.718724 34.581623 -34.607353 -10.497144 1.215316 0.256986 15.649174 -7.125000 0.000000 0.000000 81.227861 -14.494070 24.844288 -23.384095 25.628880 -7.084676 1.790431 -0.332876 5.242415 7.125000 0.000000 0.000000 
20.497838 18.212888 0.321157 14.540541 -78.475080 -2.128302 -9.119834 -23.751509 -14.778083 -0.789515 6.733782 21.192711 -1.101399 5.296226 2.208344 0.313900 3.601800 9.959100 15.431906 18.493285 -14.138854 -0.583221 -7.086108 23.760921 2.267378 -15.588414 -18.663480 -0.341500 -3.755400 10.389600 1.079696 -0.898302 -6.993611 1.068575 -0.019948 -3.014730 -3.480266 -2.844020 4.998927 -0.931300 -1.607500 1.462600 -93.479992 17.460565 10.063325 34.748486 -34.753503 -10.615520 1.221241 0.247853 15.974816 -7.125000 0.000000 0.000000 80.941116 -14.493102 25.169338 -23.779233 26.032533 -7.255924 1.775860 -0.326652 5.033376 7.125000 0.000000 0.000000 
20.523756 18.210296 0.308649 14.751548 -78.377716 -2.341592 -9.159136 -23.598321 -15.035462 -0.759801 6.801249 21.388158 -0.931235 4.777061 2.256056 0.391200 4.016300 11.122700 15.374793 18.459907 -14.279937 -0.601210 -7.121296 23.862201 2.269484 -15.599598 -18.669766 -0.351200 -3.807400 10.535300 1.141334 -0.971175 -6.935295 1.182847 -0.048230 -2.934292 -3.436491 -2.718037 4.397854 -0.868400 -1.543200 1.304700 -93.504169 17.649676 10.435714 35.351323 -35.304924 -11.027388 1.221916 0.231266 16.115056 -7.125000 0.000000 0.000000 80.370508 -14.404367 25.985630 -24.081640 26.322599 -7.370802 1.763848 -0.330059 4.753477 7.125000 0.000000 0.000000 
20.549448 18.208719 0.296028 14.895894 -78.350845 -2.486913 -9.204244 -23.275615 -15.357276 -0.727238 6.886248 21.612206 -0.786029 4.338587 2.292942 0.414900 4.134600 11.455700 15.336610 18.457035 -14.423168 -0.625836 -7.166428 23.998380 2.243737 -15.513268 -18.696513 -0.376000 -3.938500 10.903700 1.209213 -1.026570 -6.869643 1.339890 -0.070719 -2.815167 -3.917130 -2.662722 3.585926 -1.018900 -1.506200 1.062500 -93.555709 17.928868 10.820235 36.110391 -35.968513 -11.540998 1.218825 0.214476 16.181670 -7.125000 0.000000 0.000000 79.773317 -14.312057 26.764926 -24.368518 26.600215 -7.479701 1.756292 -0.328568 4.585488 7.125000 0.000000 0.000000 
20.580437 18.203310 0.285098 14.756549 -78.262326 -2.334625 -9.214699 -22.848500 -15.795638 -0.691041 6.985394 21.855935 -0.655423 3.948644 2.368884 0.339700 3.745200 10.360900 15.343009 18.412598 -14.634366 -0.653020 -7.217781 24.148284 2.248245 -15.531561 -18.680570 -0.373300 -3.924500 10.864200 1.202832 -1.017072 -6.845532 1.276090 -0.061315 -2.878355 -3.658417 -2.662945 3.403533 -0.936200 -1.505500 1.046200 -93.361869 18.081150 11.194170 36.463449 -36.262156 -11.783663 1.224668 0.189176 16.531102 -7.125000 0.000000 0.000000 79.449648 -14.336866 27.117148 -24.749404 26.983039 -7.649938 1.745393 -0.314617 4.581773 7.125000 0.000000 0.000000 
